<?xml version="1.0" encoding="UTF-8" standalone="no"?>
<!-- Created with Inkscape (http://www.inkscape.org/) -->

<svg
   width="500"
   height="500"
   viewBox="0 0 132.29166 132.29167"
   version="1.1"
   id="svg1"
   xml:space="preserve"
   sodipodi:docname="favicon_white.svg"
   inkscape:version="1.4.4 (dcaf3e7, 2026-05-05)"
   xmlns:inkscape="http://www.inkscape.org/namespaces/inkscape"
   xmlns:sodipodi="http://sodipodi.sourceforge.net/DTD/sodipodi-0.dtd"
   xmlns="http://www.w3.org/2000/svg"
   xmlns:svg="http://www.w3.org/2000/svg"><sodipodi:namedview
     id="namedview1"
     pagecolor="#ffffff"
     bordercolor="#000000"
     borderopacity="0.25"
     inkscape:showpageshadow="2"
     inkscape:pageopacity="0.0"
     inkscape:pagecheckerboard="0"
     inkscape:deskcolor="#d1d1d1"
     inkscape:document-units="mm"
     inkscape:zoom="0.50835204"
     inkscape:cx="-86.554192"
     inkscape:cy="652.10715"
     inkscape:window-width="1920"
     inkscape:window-height="1009"
     inkscape:window-x="3"
     inkscape:window-y="-8"
     inkscape:window-maximized="1"
     inkscape:current-layer="layer1"><inkscape:page
       x="0"
       y="0"
       width="132.29166"
       height="132.29167"
       id="page2"
       margin="0"
       bleed="0" /></sodipodi:namedview><defs
     id="defs1"><linearGradient
       id="swatch2"
       inkscape:swatch="solid"><stop
         style="stop-color:#ffffff;stop-opacity:1;"
         offset="0"
         id="stop2" /></linearGradient></defs><g
     inkscape:label="Layer 1"
     inkscape:groupmode="layer"
     id="layer1"><path
       id="rect1-5"
       style="opacity:1;fill:#ffffff;fill-opacity:1;fill-rule:nonzero;stroke-width:0.283421"
       d="M 0,0 V 132.29166 H 132.29167 V 0 Z m 64.93144,9.85986 c 12.52599,-0.0895 24.18481,3.70115 28.70884,5.28237 L 87.93572,29.75167 C 66.11958,19.53383 41.08502,25.70285 55.60694,46.33619 62.60025,56.272577 87.25485,57.580417 97.58836,77.160655 116.90311,113.75883 71.26747,135.04433 30.13459,114.28966 L 35.4707,99.712255 c 13.6609,9.683215 46.1855,11.273175 46.69793,-6.6213 C 82.51875,80.864915 63.02286,74.151415 49.58974,65.642497 18.76333,46.11617 33.43389,21.27249 42.80152,15.5267 49.58799,11.36411 57.41584,9.91357 64.93144,9.85986 Z" /></g></svg>
